<svg xmlns="http://www.w3.org/2000/svg" width="20" height="20" viewBox="0 0 20 20" fill="none">
  <path d="M15.8333 8.3335V3.3335M13.3333 5.8335H18.3333M13.3333 17.5002V16.5002C13.3333 15.1 13.3333 14.4 13.0608 13.8652C12.8212 13.3948 12.4387 13.0123 11.9683 12.7726C11.4335 12.5002 10.7335 12.5002 9.33332 12.5002H5.66666C4.26653 12.5002 3.56646 12.5002 3.03168 12.7726C2.56128 13.0123 2.17882 13.3948 1.93914 13.8652C1.66666 14.4 1.66666 15.1 1.66666 16.5002V17.5002M10.4167 6.25016C10.4167 7.86099 9.11082 9.16683 7.49999 9.16683C5.88916 9.16683 4.58332 7.86099 4.58332 6.25016C4.58332 4.63933 5.88916 3.3335 7.49999 3.3335C9.11082 3.3335 10.4167 4.63933 10.4167 6.25016Z" stroke="#344054" stroke-width="1.66667" stroke-linecap="round" stroke-linejoin="round"/>
</svg>