<svg xmlns="http://www.w3.org/2000/svg" width="25" height="24" viewBox="0 0 25 24" fill="none">
  <path d="M12.3333 13C12.8856 13 13.3333 12.5523 13.3333 12C13.3333 11.4477 12.8856 11 12.3333 11C11.7811 11 11.3333 11.4477 11.3333 12C11.3333 12.5523 11.7811 13 12.3333 13Z" stroke="#98A2B3" stroke-width="2" stroke-linecap="round" stroke-linejoin="round"/>
  <path d="M12.3333 6C12.8856 6 13.3333 5.55228 13.3333 5C13.3333 4.44772 12.8856 4 12.3333 4C11.7811 4 11.3333 4.44772 11.3333 5C11.3333 5.55228 11.7811 6 12.3333 6Z" stroke="#98A2B3" stroke-width="2" stroke-linecap="round" stroke-linejoin="round"/>
  <path d="M12.3333 20C12.8856 20 13.3333 19.5523 13.3333 19C13.3333 18.4477 12.8856 18 12.3333 18C11.7811 18 11.3333 18.4477 11.3333 19C11.3333 19.5523 11.7811 20 12.3333 20Z" stroke="#98A2B3" stroke-width="2" stroke-linecap="round" stroke-linejoin="round"/>
</svg>